<?xml version="1.0" encoding="UTF-8"?><svg id="Camada_2" xmlns="http://www.w3.org/2000/svg" viewBox="0 0 469.13 63.26"><defs><style>.cls-1{fill:#fff;}.cls-2{fill:none;}</style></defs><g id="Layer_1"><path class="cls-1" d="M222.41,23.94s15.3,0,15.3,0v-3.86s-18.46,0-18.46,0c-3.83,0-5.91,1.36-5.91,6.15,0,0-.05,2.78-.05,5.41s.05,5.45.05,5.45c0,4.73,2.08,6.11,5.92,6.11h19.03v-3.93h-15.86c-1.1,0-1.36-.27-1.36-1.37,0,0,0-12.33,0-12.63,0-1.06.26-1.33,1.36-1.33"/><polygon class="cls-1" points="261.12 20.07 261.12 29.15 248.75 29.15 248.75 20.08 240.96 20.08 240.96 43.2 248.75 43.2 248.75 32.86 261.13 32.86 261.13 43.2 268.92 43.2 268.92 20.08 261.12 20.07"/><path class="cls-1" d="M323.32,20.08l-7.53,18.91c-.14.33-.3.36-.81.36-.52,0-.68-.03-.81-.36l-7.48-18.92h-27.99c-3.83,0-5.92,1.37-5.92,6.15,0,0-.05,2.78-.05,5.41s.05,5.47.05,5.47c0,4.73,2.08,6.1,5.92,6.1h19.64v-3.93h-16.47c-1.1,0-1.37-.27-1.37-1.37,0,0,0-2.31,0-5.01h16.36v-3.82h-16.36v-3.8c0-1.06.26-1.33,1.36-1.33,0,0,13.45,0,17.58,0,2.41,5.81,6.72,15.81,7.1,16.68.53,1.2,1.48,2.58,3.5,2.58h7.27c2.03,0,2.72-1.36,3.25-2.56.53-1.2,8.69-20.56,8.69-20.56h-5.93Z"/><path class="cls-1" d="M369.95,23.9h9.94c1.09,0,1.35.27,1.35,1.33,0,.3,0,12.72,0,12.72,0,1.09-.26,1.37-1.33,1.37h-9.95c-1.08,0-1.33-.29-1.33-1.37,0,0,0-12.41,0-12.72,0-1.06.26-1.32,1.34-1.33M388.96,26.2c0-4.79-2.09-6.15-5.92-6.14,0,0-4.6-.02-8.13-.02s-8.11.02-8.11.02c-3.82,0-5.91,1.35-5.91,6.15,0,0-.05,2.78-.05,5.41s.05,5.5.05,5.5c0,4.74,2.09,6.11,5.91,6.11h16.24c3.84,0,5.92-1.38,5.92-6.12,0,0,.05-2.86.05-5.5s-.05-5.41-.05-5.41"/><polygon class="cls-1" points="400.65 39.29 400.65 20.07 392.9 20.07 392.9 43.21 416.89 43.19 416.89 39.29 400.65 39.29"/><path class="cls-1" d="M423.6,20.07c-3.82,0-5.91,1.36-5.91,6.15,0,0-.05,2.78-.05,5.41s.04,5.45.04,5.45c0,4.74,2.09,6.1,5.92,6.1.75,0,19.65-.01,19.65-.01v-3.88h-16.47c-1.1,0-1.37-.27-1.37-1.37v-5.03h16.3v-3.84h-16.3v-3.78c0-1.06.27-1.33,1.36-1.33,0,0,25.71-.02,25.71-.02v19.27h7.76v-19.27h8.9v-3.84h-45.53Z"/><path class="cls-1" d="M348.91,33.29c-.24-.17-.1-.29.12-.29.08,0,3.49,0,3.49,0,2.59,0,5.01-.8,5.18-4.34.17-.94.05-3.27.05-3.27,0-3.83-1.97-5.24-4.93-5.24h-22.8v23.05h7.67v-19.27h11.38c.71,0,.9.2.92.62.03.49.05,1.47.05,2.32,0,.98,0,1.73-.05,2.12-.05.38-.43.62-.94.62h-9.17v3.53s11.33,10.07,11.33,10.07h10.68s-12.88-9.85-12.99-9.92"/><path class="cls-1" d="M173.11,21.77l-10.06,19.7h-42.3v13.81h-47.4v-13.81H20.99l10.06-19.7h42.3V7.96h47.4v13.81h52.36ZM193.27,13.72h-64.56V1.27c0-.7-.57-1.27-1.27-1.27h-60.83c-.7,0-1.27.57-1.27,1.27v12.44H19.07c-.7,0-1.56.57-1.92,1.27L.16,48.27c-.36.7-.08,1.27.62,1.27h64.56v12.45c0,.7.57,1.27,1.27,1.27h60.83c.7,0,1.27-.57,1.27-1.27v-12.45h46.27c.7,0,1.56-.57,1.92-1.27l16.99-33.29c.36-.7.08-1.27-.62-1.27"/><rect class="cls-2" width="469.13" height="63.26"/></g></svg>