<svg xmlns="http://www.w3.org/2000/svg" xmlns:xlink="http://www.w3.org/1999/xlink" preserveAspectRatio="xMidYMid" width="27" height="22" viewBox="0 0 27 22">
  <defs>
    <style>.cls-2 {fill: #777;}</style>
  </defs>
  <path d="M26.387,2.551 C25.416,2.969 24.361,3.271 23.273,3.388 C24.395,2.718 25.249,1.664 25.650,0.408 C24.612,1.028 23.441,1.480 22.219,1.714 C21.231,0.659 19.825,0.007 18.268,0.007 C15.272,0.007 12.862,2.434 12.862,5.413 C12.862,5.832 12.912,6.250 12.996,6.652 C8.510,6.418 4.509,4.275 1.848,0.994 C1.379,1.798 1.111,2.718 1.111,3.723 C1.111,5.597 2.065,7.254 3.521,8.225 C2.634,8.192 1.797,7.941 1.078,7.539 C1.078,7.556 1.078,7.589 1.078,7.606 C1.078,10.234 2.936,12.410 5.413,12.912 C4.961,13.029 4.476,13.096 3.990,13.096 C3.639,13.096 3.304,13.063 2.969,13.013 C3.655,15.155 5.647,16.712 8.024,16.762 C6.166,18.218 3.840,19.072 1.312,19.072 C0.860,19.072 0.442,19.055 0.006,19.005 C2.400,20.545 5.246,21.432 8.309,21.432 C18.252,21.432 23.692,13.197 23.692,6.049 C23.692,5.815 23.692,5.581 23.675,5.346 C24.730,4.576 25.650,3.622 26.387,2.551 Z" id="path-1" class="cls-2" fill-rule="evenodd"/>
</svg>
