<?xml version="1.0" encoding="utf-8"?>
<svg width="67.3px" height="67.299995px" viewBox="0 0 67.3 67.299995" version="1.1" xmlns:xlink="http://www.w3.org/1999/xlink" xmlns="http://www.w3.org/2000/svg">
  <g id="social-icons-ig">
    <path d="M33.7 19.7C26 19.7 19.8 26 19.8 33.6C19.7 41.4 26 47.6 33.7 47.6C41.4 47.6 47.6 41.3 47.6 33.7C47.6 26 41.3 19.7 33.7 19.7L33.7 19.7ZM49 0L18.3 0C8.2 0 0 8.2 0 18.3L0 49C0 59.1 8.2 67.3 18.3 67.3L49 67.3C59.1 67.3 67.3 59.1 67.3 49L67.3 18.3C67.3 8.2 59.1 0 49 0L49 0ZM33.7 53.7C22.7 53.7 13.7 44.7 13.7 33.7C13.7 22.7 22.7 13.7 33.7 13.7C44.7 13.7 53.7 22.7 53.7 33.7C53.7 44.7 44.7 53.7 33.7 53.7L33.7 53.7ZM55.8 16.7C52.9 16.7 50.6 14.4 50.6 11.5C50.6 8.59999 52.9 6.3 55.8 6.3C58.7 6.3 61 8.59999 61 11.5C61 14.4 58.7 16.7 55.8 16.7L55.8 16.7Z" id="Group" fill="#777777" stroke="none" />
  </g>
</svg>